<svg viewBox="0 0 36 36" xmlns="http://www.w3.org/2000/svg" fill="#0037c1">
	<path d="M31.717 7.848h-4.5v-7.272c0-0.318-0.258-0.576-0.576-0.576s-0.576 0.258-0.576 0.576v0v7.272h-7.38v-4.428c0-0.318-0.258-0.576-0.576-0.576s-0.576 0.258-0.576 0.576v0v4.428h-7.416v-7.272c0-0.318-0.258-0.576-0.576-0.576s-0.576 0.258-0.576 0.576v0v7.272h-4.464c-1.244 0.02-2.248 1.024-2.268 2.266l0 0.002v13.788c0.02 1.244 1.024 2.248 2.266 2.268l0.002 0h4.464v4.752l-1.188-1.584c-0.105-0.11-0.253-0.18-0.417-0.18-0.318 0-0.576 0.258-0.576 0.576 0 0.091 0.021 0.178 0.06 0.255l-0.001-0.003l2.196 2.988l0.036 0.036l0.036 0.072l0.072 0.036c0.029 0.002 0.054 0.016 0.072 0.036l0 0h0.396c0.029-0.002 0.054-0.016 0.072-0.036l0 0l0.072-0.036l0.036-0.072l0.036-0.036l2.232-2.988c0.079-0.098 0.126-0.223 0.126-0.36 0-0.318-0.258-0.576-0.576-0.576-0.181 0-0.343 0.084-0.449 0.215l-0.001 0.001l-1.188 1.584v-4.68h7.416v7.596l-1.188-1.584c-0.106-0.11-0.253-0.18-0.417-0.18-0.318 0-0.576 0.258-0.576 0.576 0 0.091 0.021 0.178 0.06 0.255l-0.001-0.003l2.196 2.988l0.144 0.144c0.029 0.002 0.054 0.016 0.072 0.036l0 0h0.396c0.029-0.002 0.054-0.016 0.072-0.036l0.144-0.144l2.232-2.988c0.079-0.098 0.126-0.223 0.126-0.36 0-0.318-0.258-0.576-0.576-0.576-0.181 0-0.343 0.084-0.449 0.215l-0.001 0.001l-1.188 1.584v-7.524h7.416v4.788l-1.188-1.62c-0.105-0.11-0.253-0.18-0.417-0.18-0.318 0-0.576 0.258-0.576 0.576 0 0.091 0.021 0.178 0.06 0.255l-0.001-0.003l2.16 2.988l0.072 0.036l0.036 0.072l0.036 0.036c0.008-0.002 0.016-0.003 0.025-0.003 0.034 0 0.063 0.015 0.083 0.038l0 0h0.396c0.029-0.002 0.054-0.016 0.072-0.036l0.144-0.144l2.232-2.988c0.079-0.098 0.126-0.223 0.126-0.36 0-0.318-0.258-0.576-0.576-0.576-0.181 0-0.343 0.084-0.449 0.215l-0.001 0.001l-1.188 1.584v-4.68h4.5c0 0 0 0 0 0 1.26 0 2.284-1.011 2.304-2.266l0-0.002v-13.788c0.018-0.098 0.028-0.212 0.028-0.326 0-1.073-0.871-1.944-1.944-1.944-0.035 0-0.07 0.001-0.105 0.002l0.005 0zM3.385 22.788v-0.972h29.484v0.972h-29.484zM8.965 11.268v0.972h-5.58v-0.972h5.58zM8.965 15.48c0.078 0.232 0.294 0.397 0.548 0.397 0.01 0 0.02 0 0.03-0.001l-0.001 0c0.255-0.017 0.471-0.173 0.574-0.391l0.002-0.005h7.416v0.972h-14.148v-0.972h5.58zM17.533 17.604v0.576c0.007 0.156 0.074 0.296 0.18 0.396l0 0h-14.328v-0.972h14.148zM18.685 18.18v-0.576h14.184v0.972h-14.4c0.119-0.094 0.2-0.235 0.216-0.394l0-0.002zM18.685 16.452v-0.972h7.38c0.078 0.232 0.294 0.397 0.548 0.397 0.01 0 0.02 0 0.03-0.001l-0.001 0c0.259-0.009 0.478-0.168 0.575-0.391l0.001-0.005h5.652v0.972h-14.184zM27.217 14.328v-1.008h5.652v1.008h-5.652zM26.065 14.328h-7.38v-1.008h7.38v1.008zM17.533 14.328h-7.416v-1.008h7.416v1.008zM8.965 14.328h-5.58v-1.008h5.58v1.008zM3.385 19.692h29.484v0.972h-29.484v-0.972zM32.869 12.204h-5.652v-1.008h5.652v1.008zM26.065 12.204h-7.38v-1.008h7.38v1.008zM17.533 12.204h-7.416v-1.008h7.416v1.008zM31.717 9c0 0 0 0 0 0 0.623 0 1.132 0.495 1.151 1.114l0 0.002h-5.652v-1.116h4.5zM26.065 9v1.116h-7.38v-1.116h7.38zM17.533 9v1.116h-7.416v-1.116h7.416zM4.501 9h4.464v1.116h-5.58c0-0.616 0.5-1.116 1.116-1.116v0zM31.717 25.02h-27.216c-0.609-0.019-1.097-0.507-1.116-1.114l0-0.002h29.448c0 0.011 0.001 0.024 0.001 0.037 0 0.596-0.484 1.08-1.08 1.08-0.012 0-0.026 0-0.038-0.001l0.002 0z"></path>
</svg>