<svg viewBox="0 0 36 36" class="icon-brakes" xmlns="http://www.w3.org/2000/svg" fill="#0037c1">
    <path d="M35.999 23.299v6.291h-2.185v-5.166h-0.993v5.166h-1.821v-5c-0.678-0.368-1.25-0.845-1.714-1.414l-0.008-0.01c-1.075-1.328-1.726-3.037-1.726-4.9 0-0.094 0.002-0.187 0.005-0.279l0 0.013c0-4.967 3.444-6.589 3.444-6.589v-5h1.821v5.066h0.993v-5.066h2.185v6.291s-2.583 2.45-2.583 5.298 2.583 5.298 2.583 5.298zM16.529 3.199c4.731 0.004 8.945 2.218 11.665 5.664l0.024 0.031v0.132c-1.221 1.138-2.19 2.531-2.821 4.096l-0.027 0.077c-1.734-3.15-5.031-5.248-8.818-5.248-5.541 0-10.033 4.492-10.033 10.033s4.492 10.033 10.033 10.033c3.787 0 7.085-2.099 8.793-5.197l0.026-0.052c0.654 1.655 1.623 3.059 2.842 4.199l0.006 0.006v0.132c-2.734 3.48-6.942 5.695-11.669 5.695-8.175 0-14.801-6.627-14.801-14.801 0-8.168 6.615-14.79 14.781-14.801h0.001M16.529 1.445c-9.132 0.016-16.529 7.422-16.529 16.556 0 9.144 7.412 16.556 16.556 16.556 5.499 0 10.372-2.681 13.383-6.807l0.033-0.048v-1.523c-1.523-1.225-3.709-3.709-3.709-8.179s2.185-6.987 3.709-8.179v-1.523c-3.043-4.173-7.917-6.854-13.416-6.854-0.009 0-0.02 0-0.029 0h0.001zM16.529 26.279c-4.557-0.019-8.245-3.718-8.245-8.278 0-4.572 3.707-8.278 8.278-8.278s8.278 3.707 8.278 8.278v0c0 0 0 0 0 0 0 4.572-3.707 8.278-8.278 8.278-0.011 0-0.024 0-0.035 0h0.002zM23.019 17.008c0.548 0 0.993 0.445 0.993 0.993s-0.445 0.993-0.993 0.993c-0.548 0-0.993-0.445-0.993-0.993v0c0-0.548 0.445-0.993 0.993-0.993v0zM21.827 12.736c0.184 0.18 0.298 0.432 0.298 0.71 0 0.548-0.445 0.993-0.993 0.993s-0.993-0.445-0.993-0.993c0-0.277 0.114-0.529 0.298-0.709l0 0c0.179-0.176 0.424-0.284 0.695-0.284s0.516 0.109 0.695 0.285l0 0zM21.827 21.842c0.174 0.179 0.281 0.423 0.281 0.693 0 0.548-0.445 0.993-0.993 0.993s-0.993-0.445-0.993-0.993c0-0.27 0.108-0.514 0.281-0.693l0 0c0.181-0.185 0.433-0.3 0.712-0.3s0.531 0.115 0.712 0.3l0 0zM16.529 13.1c2.688 0 4.868 2.179 4.868 4.868s-2.179 4.868-4.868 4.868c-2.677 0-4.849-2.161-4.868-4.832v-0.002c0 0 0 0 0 0 0-2.695 2.175-4.882 4.866-4.901h0.002zM20.503 18.001c0-2.176-1.764-3.94-3.94-3.94s-3.94 1.764-3.94 3.94c0 2.165 1.746 3.922 3.905 3.94h0.002c0.009 0 0.022 0 0.033 0 2.176 0 3.94-1.764 3.94-3.94 0 0 0 0 0 0v0zM16.529 10.484c0.548 0 0.993 0.445 0.993 0.993s-0.445 0.993-0.993 0.993c-0.548 0-0.993-0.445-0.993-0.993v0c0-0.548 0.445-0.993 0.993-0.993v0zM16.529 23.432c0.548 0 0.993 0.445 0.993 0.993s-0.445 0.993-0.993 0.993c-0.548 0-0.993-0.445-0.993-0.993v0c0-0.548 0.445-0.993 0.993-0.993v0zM12.688 21.875c0.174 0.179 0.281 0.423 0.281 0.693 0 0.548-0.445 0.993-0.993 0.993s-0.993-0.445-0.993-0.993c0-0.27 0.108-0.514 0.281-0.693l0 0c0.181-0.185 0.433-0.3 0.712-0.3s0.531 0.115 0.712 0.3l0 0zM12.655 12.703c0.184 0.18 0.298 0.432 0.298 0.71 0 0.548-0.445 0.993-0.993 0.993s-0.993-0.445-0.993-0.993c0-0.277 0.114-0.529 0.298-0.709l0 0c0.179-0.176 0.424-0.284 0.695-0.284s0.516 0.109 0.695 0.285l0 0zM10.072 17.008c0.548 0 0.993 0.445 0.993 0.993s-0.445 0.993-0.993 0.993c-0.548 0-0.993-0.445-0.993-0.993v0c0-0.548 0.445-0.993 0.993-0.993v0z"></path>
</svg>

