<svg viewBox="0 0 36 36" xmlns="http://www.w3.org/2000/svg" fill="#0037c1">
	<path d="M17.996 19.669c-3.324 0.054-5.999 2.762-5.999 6.094 0 3.366 2.729 6.095 6.095 6.095s6.095-2.729 6.095-6.095c0-0.011 0-0.022 0-0.033v0.002c-0.054-3.36-2.791-6.063-6.158-6.063-0.012 0-0.023 0-0.035 0h0.002zM17.996 20.759c2.705 0.054 4.876 2.259 4.876 4.971 0 2.746-2.226 4.972-4.972 4.972s-4.971-2.225-4.972-4.971v0c0.018-2.75 2.252-4.972 5.004-4.972 0.023 0 0.045 0 0.067 0l-0.003 0zM25.31 25.475v5.004l-2.47 2.438h-9.656l-2.502-2.438v-4.748h-1.123v5.229l3.144 3.08h10.586l3.144-3.08v-5.485h-1.123zM17.996 24.096c-0.907 0.018-1.636 0.758-1.636 1.668 0 0.921 0.747 1.668 1.668 1.668s1.668-0.747 1.668-1.668c0-0.011 0-0.022 0-0.033l0 0.002c-0.018-0.907-0.758-1.636-1.668-1.636-0.011 0-0.023 0-0.034 0l0.002 0zM17.996 25.186c0.31 0 0.561 0.252 0.561 0.561s-0.252 0.561-0.561 0.561v0c-0.31 0-0.561-0.252-0.561-0.561s0.252-0.561 0.561-0.561v0zM17.996 2.507c-1.828 0.018-3.304 1.505-3.304 3.336 0 1.843 1.494 3.336 3.336 3.336s3.336-1.494 3.336-3.336v0c0 0 0 0 0 0 0-1.843-1.494-3.336-3.336-3.336-0.011 0-0.023 0-0.034 0h0.002zM17.996 3.63c1.209 0.018 2.181 1.002 2.181 2.213 0 1.222-0.991 2.213-2.213 2.213s-2.213-0.99-2.213-2.213v0c0 0 0 0 0 0 0-1.222 0.991-2.213 2.213-2.213 0.011 0 0.022 0 0.034 0l-0.002 0zM12.061 4.656l-0.962 0.545l5.999 10.393l-8.18 4.94l-5.902-10.554l-0.994 0.545l6.127 10.939v4.266c-0.001 0.01-0.001 0.021-0.001 0.033 0 0.301 0.245 0.545 0.545 0.545 0.012 0 0.023 0 0.035-0.001l-0.002 0h3.946v-1.123h-3.4v-3.561l8.886-5.389c0.159-0.097 0.265-0.27 0.265-0.467 0-0.099-0.027-0.192-0.073-0.273l0.001 0.003zM16.52 13.221l-9.174 5.678l0.577 0.962l9.207-5.71zM6.031 8.281l-0.994 0.545l5.261 9.271l0.994-0.545zM9.174 6.452l-0.994 0.545l5.261 9.303l0.994-0.545zM14.692 5.747l-2.117 1.283l0.609 0.962l2.085-1.315zM16.264 7.671l-2.117 1.315l0.609 0.93l2.085-1.283zM11.067 1.961c-0.108 0.006-0.208 0.041-0.291 0.097l0.002-0.001l-10.49 6.223c-0.173 0.093-0.289 0.274-0.289 0.481 0 0.094 0.024 0.182 0.065 0.26l-0.001-0.003c0.005-0.001 0.01-0.002 0.016-0.002s0.011 0.001 0.016 0.002l0 0l1.315 2.085c0.104 0.161 0.283 0.267 0.487 0.267 0.104 0 0.201-0.027 0.286-0.076l-0.003 0.002l10.49-6.223c0.167-0.095 0.279-0.273 0.279-0.475 0-0.109-0.032-0.212-0.087-0.297l0.001 0.002c0 0 0 0 0 0l-1.315-2.085c-0.105-0.155-0.281-0.257-0.48-0.257 0 0-0.001 0-0.001 0h0zM10.875 3.277l0.706 1.123l-9.527 5.646l-0.706-1.123zM23.93 4.656l-6.287 10.843c-0.045 0.078-0.072 0.171-0.072 0.271 0 0.197 0.105 0.37 0.262 0.466l0.002 0.001l8.886 5.389v3.561h-3.368v1.123h3.914c0.01 0.001 0.021 0.001 0.032 0.001 0.301 0 0.545-0.245 0.545-0.545 0 0 0-0.001 0-0.001v0v-4.299l6.095-10.939l-0.962-0.545l-5.902 10.554l-8.18-4.94l6.031-10.393zM19.472 13.253l-0.609 0.898l9.207 5.71l0.577-0.962zM29.961 8.281l-5.229 9.271l0.962 0.545l5.261-9.271zM26.818 6.485l-5.229 9.271l0.962 0.545l5.261-9.303zM21.3 5.747l-0.577 0.93l2.085 1.315l0.609-0.962zM19.728 7.671l-0.577 0.962l2.085 1.283l0.609-0.93zM14.05 25.732c0 0 0-0.001 0-0.001 0-0.301 0.245-0.545 0.545-0.545 0.011 0 0.022 0 0.034 0.001l-0.002 0c0.301 0 0.545 0.245 0.545 0.545v0v0c0.001 0.01 0.001 0.021 0.001 0.032 0 0.301-0.245 0.545-0.545 0.545 0 0-0.001 0-0.001 0h0c-0.01 0.001-0.021 0.001-0.033 0.001-0.301 0-0.545-0.245-0.545-0.545 0-0.012 0-0.023 0.001-0.035l0 0.002zM20.819 25.732c0-0.301 0.245-0.545 0.545-0.545v0v0c0.01-0.001 0.021-0.001 0.032-0.001 0.301 0 0.545 0.245 0.545 0.545 0 0 0 0.001 0 0.001v0c0.001 0.01 0.001 0.021 0.001 0.033 0 0.301-0.245 0.545-0.545 0.545-0.012 0-0.023 0-0.035-0.001l0.002 0c0 0-0.001 0-0.001 0-0.301 0-0.545-0.245-0.545-0.545 0-0.011 0-0.022 0.001-0.034l0 0.002zM17.996 21.882c0.01-0.001 0.021-0.001 0.032-0.001 0.301 0 0.545 0.245 0.545 0.545 0 0 0 0.001 0 0.001v0c0 0 0 0.001 0 0.001 0 0.301-0.245 0.545-0.545 0.545-0.011 0-0.022 0-0.034-0.001l0.002 0c-0.301 0-0.545-0.245-0.545-0.545v0v0c0-0.301 0.245-0.545 0.545-0.545v0v0zM17.996 28.522c0.01-0.001 0.021-0.001 0.032-0.001 0.301 0 0.545 0.245 0.545 0.545 0 0 0 0.001 0 0.001v0c0 0 0 0.001 0 0.001 0 0.301-0.245 0.545-0.545 0.545-0.011 0-0.022 0-0.034-0.001l0.002 0c-0.301 0-0.545-0.245-0.545-0.545v0v0c0-0.301 0.245-0.545 0.545-0.545v0v0zM24.957 1.961c-0.01-0.001-0.021-0.001-0.032-0.001-0.199 0-0.376 0.101-0.479 0.256l-0.001 0.002l-1.315 2.085c-0.054 0.083-0.086 0.184-0.086 0.294 0 0.203 0.111 0.381 0.276 0.474l0.003 0.001l10.522 6.223c0.081 0.047 0.179 0.074 0.283 0.074 0.203 0 0.383-0.105 0.485-0.265l0.001-0.002l1.315-2.085c0.045-0.077 0.072-0.171 0.072-0.271 0-0.197-0.105-0.37-0.262-0.466l-0.002-0.001l-10.522-6.223c-0.072-0.05-0.159-0.084-0.254-0.096l-0.003 0zM25.117 3.277l9.527 5.646l-0.706 1.123l-9.527-5.646z"></path>
</svg>