<svg viewBox="0 0 36 36" xmlns="http://www.w3.org/2000/svg" fill="#0037c1">
	<path d="M5.184 3.768c-0.395 0.016-0.708 0.339-0.708 0.736 0 0 0 0 0 0.001v0v4.135h-3.739c-0.407 0-0.736 0.329-0.736 0.736v0v2.068c0 0.407 0.329 0.736 0.736 0.736v0h3.739v4.135c-0.009 0.043-0.014 0.093-0.014 0.143 0 0.407 0.329 0.736 0.736 0.736s0.736-0.33 0.736-0.736c0-0.05-0.005-0.101-0.015-0.149l0.001 0.004v-0.736h16.797c0.395-0.016 0.708-0.339 0.708-0.736 0 0 0 0 0-0.001v0v-2.662h2.096c0.296 0.004 0.547 0.189 0.65 0.449l0.002 0.004l1.954 5.155l-1.954 5.127c-0.096 0.276-0.35 0.473-0.651 0.482l-0.001 0h-2.096v-2.662c0 0 0 0 0-0.001 0-0.397-0.313-0.72-0.706-0.736l-0.002 0h-16.797v-0.736c0.009-0.043 0.014-0.093 0.014-0.143 0-0.406-0.329-0.736-0.736-0.736s-0.736 0.329-0.736 0.736c0 0.05 0.005 0.101 0.015 0.149l-0.001-0.004v4.135h-3.739c-0.407 0-0.736 0.329-0.736 0.736v0v2.068c0 0.406 0.329 0.736 0.736 0.736v0h3.739v4.419c-0.009 0.043-0.014 0.093-0.014 0.143 0 0.406 0.329 0.736 0.736 0.736s0.736-0.329 0.736-0.736c0-0.05-0.005-0.101-0.015-0.149l0.001 0.004v-1.048h16.797c0.395-0.016 0.708-0.339 0.708-0.736 0 0 0 0 0-0.001v0v-2.634h2.181c1.779-0.007 3.301-1.106 3.927-2.662l0.01-0.028l1.869-4.702h3.88c0.395-0.016 0.708-0.339 0.708-0.736 0 0 0 0 0-0.001v0v-2.068c0 0 0 0 0-0.001 0-0.397-0.313-0.72-0.706-0.736l-0.002 0h-3.909l-1.869-4.673c-0.63-1.588-2.153-2.691-3.934-2.691-0.001 0-0.003 0-0.004 0h-2.181v-2.662c0 0 0 0 0-0.001 0-0.397-0.313-0.72-0.706-0.736l-0.002 0h-16.769v-0.736c0-0.407-0.329-0.736-0.736-0.736v0zM5.921 6.713h16.061v7.393h-16.061v-7.393zM1.446 10.113h3.031v0.595h-3.031v-0.595zM23.426 10.113h2.181c0.002 0 0.004 0 0.006 0 1.156 0 2.143 0.72 2.537 1.738l0.006 0.019l2.039 5.183c0.119 0.264 0.378 0.445 0.679 0.453l0.001 0h3.654v0.595h-3.654c-0.003 0-0.006 0-0.009 0-0.31 0-0.574 0.199-0.669 0.476l-0.002 0.005l-2.039 5.155c-0.412 1.035-1.392 1.758-2.546 1.784l-0.004 0h-2.181v-0.595h2.068v-0.057c0.007 0 0.016 0 0.025 0 0.929 0 1.723-0.582 2.038-1.401l0.005-0.015l2.039-5.41c0.028-0.081 0.045-0.173 0.045-0.269s-0.017-0.189-0.047-0.274l0.002 0.006l-2.039-5.382c-0.319-0.835-1.113-1.416-2.043-1.416-0.009 0-0.018 0-0.027 0h-2.066v-0.595zM5.921 21.471h16.061v7.364h-16.061v-7.364zM1.446 24.87h3.031v0.595h-3.031v-0.595z"></path>
</svg>