<svg viewBox="0 0 36 36" xmlns="http://www.w3.org/2000/svg" fill="#0037c1">
	<path xmlns="http://www.w3.org/2000/svg" d="M33.499 5.076h0s-2.571-2.571-2.571-2.571c-0.672-0.673-1.764-0.673-2.437-0.001h-0.001s-2.039 2.041-2.039 2.041l-0.6-0.6c-0.674-0.672-1.764-0.672-2.438 0l-3.099 3.103c-0.673 0.673-0.673 1.764 0 2.438l1 1l-1.553 1.554l-1-1c-0.673-0.673-1.764-0.673-2.438 0-0.673 0.673-0.673 1.764 0 2.438l1 1l-1.112 1.104l-1-1c-0.673-0.673-1.764-0.673-2.438 0-0.673 0.673-0.673 1.764 0 2.438l1 1l-1.108 1.106l-1-1c-0.673-0.673-1.764-0.673-2.438 0s-0.673 1.764 0 2.438l1 1l-2.763 2.765c-0.202-0.026-0.405-0.039-0.609-0.039-2.682 0-4.857 2.174-4.857 4.857s2.174 4.857 4.857 4.857 4.857-2.174 4.857-4.857c0-0.204-0.013-0.407-0.039-0.609l2.765-2.764l1 1c0.673 0.673 1.764 0.673 2.438 0 0.673-0.673 0.673-1.764 0-2.438l-1-1l1.11-1.11l1 1c0.673 0.672 1.764 0.672 2.438 0 0.672-0.674 0.672-1.764 0-2.438l-1-1l1.11-1.11l1 1c0.673 0.673 1.764 0.673 2.438 0 0.673-0.672 0.673-1.764 0.001-2.437 0 0 0 0-0.001-0.001l-1-1l1.554-1.553l1 1c0.672 0.673 1.763 0.674 2.436 0.001 0 0 0.001-0.001 0.001-0.001l3.103-3.102c0.673-0.672 0.673-1.764 0.001-2.437h-0.001s-0.599-0.599-0.599-0.599l2.04-2.041c0.667-0.675 0.662-1.762-0.009-2.432ZM9.628 31.918c-1.531 1.53-4.012 1.53-5.542-0.001-1.53-1.531-1.53-4.012 0.001-5.542 1.531-1.53 4.012-1.53 5.542 0.001 0.735 0.735 1.148 1.731 1.148 2.771 0 1.039-0.414 2.036-1.148 2.771Zm1.789-4.448c-0.494-1.336-1.547-2.389-2.883-2.883l2.359-2.359l2.883 2.883l-2.359 2.359Zm5.794-2.469c0.304 0.307 0.304 0.801 0 1.108h-0.001c-0.307 0.306-0.804 0.306-1.111 0l-6.206-6.206c-0.298-0.315-0.283-0.812 0.032-1.11 0.302-0.286 0.775-0.286 1.078 0l6.208 6.208Zm-1.001-2.329l-2.883-2.883l1.114-1.107l2.882 2.882l-1.112 1.108Zm4.546-1.219c0.307 0.307 0.307 0.804 0.001 1.111-0.307 0.306-0.803 0.306-1.11 0l-6.206-6.206c-0.301-0.312-0.293-0.809 0.019-1.11 0.304-0.294 0.787-0.294 1.091 0l6.206 6.206Zm-0.999-2.324l-2.879-2.884l1.11-1.11l2.883 2.883l-1.114 1.111Zm4.546-1.22c0.147 0.146 0.23 0.345 0.23 0.552h-0.002c0 0.434-0.352 0.786-0.785 0.786-0.208 0-0.408-0.083-0.556-0.231l-6.203-6.203c-0.301-0.312-0.293-0.809 0.019-1.11 0.304-0.294 0.787-0.294 1.091 0l6.206 6.206Zm-0.998-2.327l-2.883-2.883l1.553-1.553l2.883 2.883l-1.553 1.553Zm8.091-3.659h-0.001v0.002l-3.102 3.102c-0.306 0.306-0.802 0.307-1.109 0.001 0 0 0 0-0.001-0.001l-6.206-6.206c-0.306-0.307-0.306-0.803 0-1.11l3.102-3.102c0.307-0.306 0.803-0.306 1.11 0l6.206 6.204c0.306 0.306 0.307 0.802 0.001 1.109Zm1.441-5.074l-2.04 2.041l-3.681-3.681l2.041-2.04c0.306-0.306 0.802-0.307 1.109-0.001 0 0 0 0 0.001 0.001l2.571 2.571c0.306 0.307 0.306 0.803 0 1.11ZM6.859 26.794c-1.298 0-2.349 1.052-2.349 2.35 0 1.298 1.052 2.349 2.35 2.349s2.349-1.052 2.349-2.35c0-0.623-0.248-1.221-0.689-1.661-0.44-0.442-1.038-0.689-1.661-0.688Zm1 3.348c-0.551 0.551-1.444 0.55-1.995-0.001-0.551-0.551-0.55-1.444 0.001-1.995 0.551-0.551 1.444-0.55 1.995 0.001 0.264 0.264 0.412 0.622 0.412 0.995 0 0.375-0.15 0.735-0.416 1h0.002Z"></path>
</svg>