<svg viewBox="0 0 36 36" xmlns="http://www.w3.org/2000/svg" fill="#0037c1">
	<path d="M29.015 22.772c-0.185-0.084-0.401-0.133-0.629-0.133-0.257 0-0.5 0.063-0.713 0.173l0.009-0.005c-0.036 0-0.036 0-0.036 0l-3.1 1.406c-0.105 0.047-0.19 0.122-0.251 0.214l-0.001 0.002l-0.541 0.865h-4.074c-0.125-0.824-0.828-1.448-1.676-1.448s-1.551 0.624-1.675 1.439l-0.001 0.009h-4.074l-0.541-0.865c-0.052-0.091-0.125-0.164-0.214-0.215l-0.002-0.001l-3.1-1.406c-0.011-0.001-0.024-0.002-0.036-0.002s-0.025 0.001-0.037 0.002l0.001 0c-0.205-0.107-0.447-0.169-0.705-0.169-0.228 0-0.444 0.05-0.639 0.137l0.01-0.003c-0.505 0.288-0.685 0.937-0.793 1.586-0.18 0.829-0.108 1.514 0.252 1.911 0.19 0.239 0.47 0.4 0.789 0.433l0.005 0l3.064 0.577c0.016 0.001 0.035 0.002 0.054 0.002s0.038-0.001 0.056-0.002l-0.002 0c0.065-0.002 0.127-0.015 0.184-0.037l1.655-0.576c0.139-0.043 0.251-0.133 0.323-0.25l0.001-0.002h3.966c0.3 0.502 0.842 0.835 1.46 0.835s1.16-0.331 1.456-0.827l0.005-0.008h3.966c0.073 0.119 0.187 0.21 0.32 0.251l0.005 0.001l1.694 0.577c0.042 0.017 0.091 0.03 0.142 0.036l0.002 0c0.016 0.001 0.035 0.002 0.054 0.002s0.038-0.001 0.056-0.002l-0.002 0l3.064-0.577c0.323-0.033 0.603-0.194 0.791-0.43l0.002-0.002c0.361-0.397 0.433-1.082 0.252-1.911-0.108-0.649-0.288-1.298-0.793-1.586zM10.339 26.124l-2.956-0.541c0 0-0.036 0-0.036 0-0.072-0.036-0.216-0.252-0.072-1.009 0.043-0.311 0.144-0.591 0.294-0.839l-0.006 0.01c0.134 0.017 0.256 0.055 0.367 0.112l2.913 1.33l0.397 0.649zM18.019 26.16c-0.011 0.001-0.024 0.001-0.036 0.001-0.319 0-0.577-0.258-0.577-0.577s0.258-0.577 0.577-0.577c0.318 0 0.576 0.258 0.577 0.576v0c0 0 0 0.001 0 0.001 0 0.305-0.238 0.557-0.54 0.576l-0.002 0zM28.654 25.584c0 0-0.036 0-0.036 0l-2.956 0.541l-0.901-0.288l0.397-0.649l2.92-1.334c0.098-0.038 0.217-0.075 0.341-0.105l0.019-0.003c0 0 0.144 0.108 0.288 0.829 0.144 0.757 0 0.973-0.072 1.009zM33.773 19.96c0-1.118-1.045-1.694-3.1-1.694-0.617 0-1.118 0.5-1.118 1.118v0v1.19c-0.072 0-0.144-0.036-0.216-0.036-0.541-0.973-2.379-4.254-3.245-5.408-0.324-0.433-0.937-0.757-1.875-0.973 1.385-1.498 2.234-3.509 2.234-5.719 0-4.66-3.776-8.436-8.436-8.436s-8.436 3.777-8.436 8.436c0 2.192 0.836 4.189 2.207 5.688l-0.006-0.007c-0.865 0.216-1.478 0.541-1.803 0.973-0.865 1.154-2.776 4.47-3.317 5.444-0.072 0-0.144 0.036-0.216 0.036v-1.19c0-0.617-0.5-1.118-1.118-1.118v0c-2.055 0-3.1 0.577-3.1 1.694 0 1.154 1.586 1.514 2.74 1.622-0.081 0.145-0.144 0.314-0.179 0.495l-0.002 0.01c-0.643 0.23-1.104 0.812-1.154 1.508l0 0.006v7.03c0.01 0.7 0.224 1.346 0.585 1.887l-0.008-0.012v2.091c0 0.011 0 0.024 0 0.036 0 0.757 0.613 1.37 1.37 1.37 0.012 0 0.026 0 0.038 0l-0.002 0h2.524c0.011 0 0.024 0 0.036 0 0.757 0 1.37-0.613 1.37-1.37 0-0.012 0-0.026 0-0.038l0 0.002v-1.118h16.908v1.118c0 0.011 0 0.024 0 0.036 0 0.757 0.613 1.37 1.37 1.37 0.012 0 0.026 0 0.038 0l-0.002 0h2.524c0.011 0 0.024 0 0.036 0 0.757 0 1.37-0.613 1.37-1.37 0-0.012 0-0.026 0-0.038l0 0.002v-2.091c0.346-0.518 0.559-1.152 0.577-1.834l0-0.005v-7.066c-0.035-0.717-0.5-1.315-1.141-1.547l-0.012-0.003c-0.039-0.177-0.103-0.333-0.185-0.477l0.005 0.008c1.154-0.108 2.74-0.469 2.74-1.622zM18.019 1.068c0.025 0 0.053 0 0.082 0 4.042 0 7.318 3.276 7.318 7.318 0 3.47-2.415 6.376-5.657 7.129l-0.05 0.01c-0.148 0.026-0.274 0.104-0.359 0.215l-0.001 0.001l-1.334 2.055l-1.37-2.055c-0.087-0.113-0.213-0.19-0.357-0.216l-0.003 0c-3.292-0.762-5.708-3.668-5.708-7.139 0-4.042 3.276-7.318 7.318-7.318 0.043 0 0.084 0 0.127 0.001l-0.007 0zM10.88 15.741c0.144-0.216 0.757-0.469 1.947-0.649 0.846 0.66 1.845 1.168 2.934 1.465l0.059 0.014l1.73 2.56c0.106 0.146 0.276 0.241 0.469 0.241s0.363-0.095 0.468-0.239l0.001-0.002l1.694-2.56c1.133-0.314 2.12-0.822 2.974-1.492l-0.018 0.014c1.586 0.216 1.947 0.613 2.055 0.721 0.685 0.901 2.091 3.389 2.848 4.687h-20.045c0.721-1.298 2.199-3.821 2.884-4.759zM3.346 19.96c0-0.108 0.108-0.577 1.983-0.577v0v1.118c-1.154-0.072-1.983-0.397-1.983-0.541zM8.429 34.596c0.002 0.011 0.003 0.025 0.003 0.039 0 0.14-0.113 0.252-0.252 0.252-0.014 0-0.027-0.001-0.041-0.003l0.001 0h-2.524c-0.011 0.002-0.025 0.003-0.039 0.003-0.14 0-0.252-0.113-0.252-0.252 0-0.014 0.001-0.027 0.003-0.041l0 0.001v-1.262c0.247 0.087 0.531 0.14 0.827 0.144l0.002 0h2.271v1.118zM30.385 34.885h-2.524c-0.011 0.002-0.025 0.003-0.039 0.003-0.14 0-0.252-0.113-0.252-0.252 0-0.014 0.001-0.027 0.003-0.041l0 0.001v-1.118h2.271c0.299-0.005 0.582-0.057 0.848-0.15l-0.019 0.006v1.262c0.002 0.011 0.003 0.025 0.003 0.039 0 0.14-0.113 0.252-0.252 0.252-0.014 0-0.027-0.001-0.041-0.003l0.001 0zM31.25 23.601v7.066c-0.014 0.51-0.202 0.974-0.507 1.337l0.002-0.003c-0.222 0.223-0.529 0.361-0.869 0.361-0.011 0-0.023 0-0.034 0l0.002 0h-23.686c-0.01 0-0.021 0-0.033 0-0.339 0-0.647-0.137-0.869-0.361l0 0c-0.303-0.359-0.491-0.824-0.505-1.33l0-0.003v-7.066c0-0.361 0.721-0.577 0.721-0.577 0.246-0.064 0.425-0.281 0.433-0.54l0-0.001c0-0.793 0.937-0.829 1.118-0.829h21.956c0.108 0 1.118 0 1.118 0.829 0.008 0.26 0.187 0.477 0.428 0.54l0.005 0.001c0 0 0.721 0.216 0.721 0.577zM30.673 20.5v-1.118c1.875 0 1.983 0.469 1.983 0.577 0 0.144-0.793 0.469-1.983 0.541zM27.284 28.107h-18.567c-0.936 0-1.694 0.758-1.694 1.694s0.758 1.694 1.694 1.694v0h18.567c0.936 0 1.694-0.758 1.694-1.694s-0.758-1.694-1.694-1.694v0zM27.284 30.378h-18.567c-0.319 0-0.577-0.258-0.577-0.577s0.258-0.577 0.577-0.577v0h18.567c0.319 0 0.577 0.258 0.577 0.577s-0.258 0.577-0.577 0.577v0zM14.629 8.026v4.038h1.118v-3.1h1.694v3.1h1.118v-3.1h2.812v-4.218h-1.118v3.1h-1.694v-3.1h-1.118v3.1h-1.334c0.468-0.306 0.771-0.828 0.771-1.421 0-0.936-0.758-1.694-1.694-1.694s-1.694 0.758-1.694 1.694c0 0.737 0.471 1.364 1.128 1.597l0.012 0.003zM15.17 5.863c0.011-0.001 0.024-0.001 0.036-0.001 0.319 0 0.577 0.258 0.577 0.577s-0.258 0.577-0.577 0.577c-0.318 0-0.576-0.258-0.577-0.576v0c0 0 0-0.001 0-0.001 0-0.305 0.238-0.557 0.54-0.576l0.002 0z"></path>
</svg>