<svg viewBox="0 0 36 36" xmlns="http://www.w3.org/2000/svg" fill="#0037c1">
	<path d="M7.763 11.965c0.534 0.043 1.013 0.251 1.392 0.573l-0.003-0.003l5.662 5.698c0.109 0.109 0.26 0.177 0.427 0.177s0.318-0.068 0.427-0.177v0c0.109-0.109 0.177-0.26 0.177-0.427s-0.068-0.318-0.177-0.427v0l-5.698-5.698c-0.582-0.54-1.351-0.885-2.2-0.926l-0.008 0c-0.071 0-3.205 0-4.665-1.46-1.14-1.175-1.389-3.383-1.46-4.273l2.137 2.137c0.296 0.296 0.706 0.479 1.157 0.479s0.861-0.182 1.157-0.479l1.496-1.496c0.307-0.298 0.497-0.714 0.497-1.175s-0.19-0.877-0.496-1.175l-2.101-2.101c0.855 0.036 3.098 0.285 4.238 1.424 1.496 1.496 1.496 4.629 1.496 4.665 0.022 0.866 0.356 1.649 0.894 2.247l-0.003-0.003l5.698 5.698c0.111 0.125 0.273 0.204 0.453 0.204 0.334 0 0.605-0.272 0.605-0.605 0-0.179-0.078-0.342-0.203-0.452l-0.001 0l-5.698-5.698c-0.325-0.373-0.534-0.854-0.57-1.382l0-0.007c0-0.142 0-3.668-1.816-5.484s-5.341-1.816-5.484-1.816c-0.053-0.011-0.116-0.017-0.179-0.017-0.531 0-0.961 0.431-0.961 0.961 0 0.333 0.169 0.625 0.425 0.798l0.003 0.002l2.386 2.386c0.09 0.085 0.147 0.205 0.147 0.338s-0.057 0.254-0.147 0.338l-1.496 1.496c-0.085 0.09-0.205 0.147-0.338 0.147s-0.254-0.057-0.338-0.147l-2.386-2.386c-0.175-0.26-0.467-0.428-0.8-0.428-0.531 0-0.961 0.431-0.961 0.961 0 0.063 0.007 0.126 0.018 0.186l-0.001-0.006c0 0.178 0 3.703 1.816 5.519s5.341 1.816 5.484 1.816zM34.185 25.461c-1.78-1.78-5.199-1.816-5.448-1.816h-0.036c-0.535-0.036-1.016-0.245-1.392-0.572l0.003 0.002l-5.662-5.698c-0.107-0.095-0.247-0.152-0.402-0.152-0.334 0-0.605 0.272-0.605 0.605 0 0.155 0.058 0.296 0.154 0.403l0-0.001l5.698 5.698c0.585 0.527 1.355 0.859 2.201 0.89l0.007 0c0.071 0.036 3.205 0 4.665 1.496 1.14 1.14 1.389 3.383 1.46 4.273l-2.137-2.137c-0.296-0.296-0.706-0.479-1.157-0.479s-0.861 0.182-1.157 0.479l-1.496 1.496c-0.298 0.302-0.482 0.717-0.482 1.175s0.184 0.874 0.482 1.175l2.101 2.101c-0.855-0.036-3.098-0.285-4.273-1.46-1.46-1.46-1.46-4.594-1.46-4.629-0.022-0.866-0.356-1.649-0.894-2.247l0.003 0.003l-5.698-5.698c-0.107-0.095-0.247-0.152-0.402-0.152-0.334 0-0.605 0.272-0.605 0.605 0 0.155 0.058 0.296 0.154 0.403l0-0.001l5.698 5.698c0.325 0.373 0.534 0.854 0.57 1.382l0 0.007c0 0.142 0 3.668 1.816 5.484 1.78 1.78 5.199 1.816 5.484 1.816v0c0.087 0.029 0.187 0.045 0.29 0.045 0.531 0 0.961-0.431 0.961-0.961 0-0.377-0.217-0.704-0.534-0.861l-0.006-0.002l-2.386-2.386c-0.08-0.083-0.129-0.196-0.129-0.32s0.049-0.237 0.129-0.32l1.496-1.496c0.085-0.09 0.205-0.147 0.338-0.147s0.254 0.057 0.338 0.147l2.386 2.386c0.175 0.26 0.467 0.428 0.8 0.428 0.531 0 0.961-0.431 0.961-0.961 0-0.063-0.007-0.126-0.018-0.186l0.001 0.006c0-0.178 0-3.703-1.816-5.519zM14.422 21.971l14.208-14.208c0.186 0.098 0.404 0.161 0.635 0.178l0.006 0c0.461 0 0.877-0.191 1.175-0.499l3.419-3.419l-2.35-2.315l-3.383 3.383c-0.307 0.298-0.499 0.714-0.499 1.175v0c0 0 0 0.001 0 0.001 0 0.245 0.052 0.476 0.147 0.687l-0.004-0.011l-14.173 14.208l-1.068-1.068c-0.298-0.307-0.714-0.497-1.175-0.497s-0.877 0.19-1.175 0.496l0 0l-9.686 9.721c-0.296 0.296-0.479 0.706-0.479 1.157s0.182 0.861 0.479 1.157l0 0l2.956 2.991c0.298 0.307 0.714 0.497 1.175 0.497s0.877-0.19 1.175-0.496l9.721-9.721c0.296-0.296 0.479-0.706 0.479-1.157s-0.182-0.861-0.479-1.157l0 0zM28.95 5.947l2.564-2.564l0.677 0.641l-2.564 2.564c-0.085 0.09-0.205 0.147-0.338 0.147s-0.254-0.057-0.338-0.147l0 0c-0.08-0.083-0.129-0.196-0.129-0.32s0.049-0.237 0.129-0.32l0 0zM4.95 34.292c-0.086 0.072-0.198 0.117-0.32 0.117s-0.235-0.045-0.322-0.117l0.001 0.001l-2.991-2.991c-0.085-0.081-0.139-0.195-0.142-0.319v-0.001c0-0.007 0-0.014 0-0.021 0-0.131 0.055-0.25 0.142-0.334l7.798-7.798l3.632 3.632zM14.671 24.57l-1.068 1.068l-3.668-3.668l1.104-1.068c0.081-0.085 0.195-0.139 0.319-0.142h0.001c0.126 0.003 0.239 0.058 0.32 0.142l0 0l2.991 2.991c0.09 0.085 0.147 0.205 0.147 0.338s-0.057 0.254-0.147 0.338l0 0z"></path>
</svg>